# AST/ASF file generated using VICON BodyLanguage
# -----------------------------------------------
:version 1.10
:name VICON
:units
  mass 1.0
  length 0.45
  angle deg
:documentation
   .ast/.asf automatically generated from VICON data using
   VICON BodyBuilder and BodyLanguage model FoxedUp or BRILLIANT.MOD
:root
   order TX TY TZ RX RY RZ
   axis XYZ
   position 0 0 0  
   orientation 0 0 0 
:bonedata
  begin
     id 1 
     name lhipjoint
     direction 0.700308 -0.549349 0.455834 
     length 2.59063 
     axis 0 0 0  XYZ
  end
  begin
     id 2 
     name lfemur
     direction 0.34202 -0.939693 0  
     length 6.31066  
     axis 0 0 20  XYZ
    dof rx ry rz
    limits (-160.0 20.0)
           (-70.0 70.0)
           (-60.0 70.0)
  end
  begin
     id 3 
     name ltibia
     direction 0.34202 -0.939693 0   
     length 7.36093   
     axis 0 0 20   XYZ
    dof rx
    limits (-10.0 170.0)
  end
  begin
     id 4 
     name lfoot
     direction 0.0905332 -0.248738 0.96433   
     length 2.0233   
     axis -90 7.62852e-016 20   XYZ
    dof rx rz
    limits (-45.0 90.0)
           (-70.0 20.0)
  end
  begin
     id 5 
     name ltoes
     direction 1.53573e-011 -4.21855e-011 1   
     length 1.01524   
     axis -90 7.62852e-016 20   XYZ
    dof rx
    limits (-90.0 20.0)
  end
  begin
     id 6 
     name rhipjoint
     direction -0.61416 -0.607328 0.503944   
     length 2.34332  
     axis 0 0 0  XYZ 
  end
  begin
     id 7 
     name rfemur
     direction -0.34202 -0.939693 0   
     length 6.58548   
     axis 0 0 -20   XYZ
    dof rx ry rz
    limits (-160.0 20.0)
           (-70.0 70.0)
           (-70.0 60.0)
  end
  begin
     id 8 
     name rtibia
     direction -0.34202 -0.939693 0   
     length 7.20707   
     axis 0 0 -20   XYZ
    dof rx
    limits (-10.0 170.0)
 end
 begin
     id 9 
     name rfoot
     direction -0.136772 -0.375778 0.916561   
     length 1.92184  
     axis -90 -7.62852e-016 -20   XYZ
    dof rx rz
    limits (-45.0 90.0)
           (-20.0 70.0)
  end
  begin
     id 10 
     name rtoes
     direction -1.53535e-011 -4.21828e-011 1   
     length 0.951089   
     axis -90 -7.62852e-016 -20   XYZ
    dof rx
    limits (-90.0 20.0)
  end
  begin
     id 11 
     name lowerback
     direction -0.0444974 0.988086 -0.147332   
     length 1.9609   
     axis 0 0 0   XYZ
    dof rx ry rz
    limits (-20.0 45.0)
           (-30.0 30.0)
           (-30.0 30.0)
  end
  begin
     id 12 
     name upperback
     direction 0.00613146 0.999513 0.0306081   
     length 1.94944   
     axis 0 0 0   XYZ
    dof rx ry rz
    limits (-20.0 45.0)
           (-30.0 30.0)
           (-30.0 30.0)
  end
  begin
     id 13 
     name thorax
     direction 0.0254621 0.994518 0.101418   
     length 2.0119   
     axis 0 0 0   XYZ
    dof rx ry rz
    limits (-20.0 45.0)
           (-30.0 30.0)
           (-30.0 30.0)
  end
  begin
     id 14 
     name lowerneck
     direction 0.0168698 0.977854 0.208608   
     length 1.6375   
     axis 0 0 0   XYZ
    dof rx ry rz
    limits (-20.0 45.0)
           (-30.0 30.0)
           (-30.0 30.0)
  end
  begin
     id 15 
     name upperneck
     direction -0.0283988 0.989338 -0.142843   
     length 1.6851   
     axis 0 0 0   XYZ
    dof rx ry rz
    limits (-20.0 45.0)
           (-30.0 30.0)
           (-30.0 30.0)
  end
  begin
     id 16
     name head
     direction -0.0129422 0.99741 -0.0707489  
     length 1.69029  
     axis 0 0 0   XYZ
    dof rx ry rz
    limits (-20.0 45.0)
           (-30.0 30.0)
           (-30.0 30.0)
  end
  begin
     id 17 
     name lclavicle
     direction 0.820295 0.564628 -0.0911715  
     length 3.16484  
     axis 0 0 0   XYZ
    dof ry rz
    limits (-20.0 10.0)
           (0.0 20.0)
  end
  begin
     id 18 
     name lhumerus
     direction 1 -4.48969e-011 1.00186e-027   
     length 5.17853   
     axis 180 -30 -90   XYZ
    dof rx ry rz
    limits (-60.0 90.0)
           (-90.0 90.0)
           (-90.0 90.0)
  end
  begin
     id 19
     name lradius
     direction 1 -4.48966e-011 -1.52922e-027   
     length 3.40399   
     axis 180 -30 -90   XYZ
    dof rx
    limits (-10.0 170.0)
  end
  begin
     id 20
     name lwrist
     direction 1 -4.48981e-011 -3.80893e-027   
     length 1.70199   
     axis 1.1049e-015 90 90   XYZ
    dof ry
    limits (-180.0 0.0)
 end
  begin
     id 21 
     name lhand
     direction 1 -4.48957e-011 -7.61786e-027   
     length 0.708964   
     axis 4.86085e-015 90 90   XYZ
    dof rx rz
    limits (-90.0 90.0)
           (-45.0 45.0)
  end
  begin
     id 22 
     name lfingers
     direction 1 -4.48929e-011 -1.52357e-026   
     length 0.571585   
     axis 9.7217e-015 90 90   XYZ
    dof rx
    limits (0.0 90.0)
  end
  begin
     id 23
     name lthumb
     direction 0.707107 -6.34905e-011 0.707107   
     length 0.820685   
     axis -90 45 2.85299e-015   XYZ
    dof rx rz
    limits (-45.0 45.0)
           (-45.0 45.0)
  end
  begin
     id 24 
     name rclavicle
     direction -0.858602 0.463947 -0.218075   
     length 3.35137  
     axis 0 0 0   XYZ 
    dof ry rz
    limits (-10.0 20.0)
           (-20.0 0.0)
  end
  begin
     id 25 
     name rhumerus
     direction -1 -4.48969e-011 -1.98511e-027  
     length 5.42351   
     axis 180 30 90   XYZ
    dof rx ry rz
    limits (-90.0 60.0)
           (-90.0 90.0)
           (-90.0 90.0)
  end
  begin
     id 26 
     name rradius
     direction -1 -4.48961e-011 -2.82624e-027   
     length 3.42066   
     axis 180 30 90   XYZ
    dof rx
    limits (-10.0 170.0)
  end
  begin
     id 27 
     name rwrist
     direction -1 -4.48966e-011 -3.80893e-027   
     length 1.71033   
     axis 1.1049e-015 -90 -90   XYZ
    dof ry
    limits (-180.0 0.0)
  end
  begin
     id 28
     name rhand
     direction -1 -4.48964e-011 -7.61786e-027   
     length 0.743608   
     axis 4.86085e-015 -90 -90   XYZ
    dof rx rz
    limits (-90.0 90.0)
           (-45.0 45.0)
  end
  begin
     id 29
     name rfingers
     direction -1 -4.48961e-011 -1.52357e-026   
     length 0.599516   
     axis 9.7217e-015 -90 -90   XYZ
    dof rx
    limits (0.0 90.0)
  end
  begin
     id 30
     name rthumb
     direction -0.707107 -6.34913e-011 0.707107   
     length 0.860789   
     axis -90 -45 -2.85299e-015   XYZ
    dof rx rz
    limits (-45.0 45.0)
           (-45.0 45.0)
  end
:hierarchy
  begin
    root lhipjoint rhipjoint lowerback
    lhipjoint lfemur
    lfemur ltibia
    ltibia lfoot
    lfoot ltoes
    rhipjoint rfemur
    rfemur rtibia
    rtibia rfoot
    rfoot rtoes
    lowerback upperback
    upperback thorax
    thorax lowerneck lclavicle rclavicle
    lowerneck upperneck
    upperneck head
    lclavicle lhumerus
    lhumerus lradius
    lradius lwrist
    lwrist lhand lthumb
    lhand lfingers
    rclavicle rhumerus
    rhumerus rradius
    rradius rwrist
    rwrist rhand rthumb
    rhand rfingers
  end

#!OML:ASF E:\mmandel\Project 1\Capture day 1\Session 2\Subject.ASF
:FULLY-SPECIFIED
:DEGREES
663
root 7.77318 14.7323 -1.33269 75.5266 81.1133 -304.477
lowerback 25.8142 1.40143 -4.27916
upperback 3.678 0.771011 -1.48934
thorax -10.2954 0.616699 0.509523
lowerneck -18.8037 0.856177 1.82909
upperneck 7.15896 1.09983 -2.98481
head 5.207 0.384536 -1.13005
rclavicle -1.66979e-014 -3.18055e-015
rhumerus -180.774 -179.105 99.9238
rradius 77.7367
rwrist -2.64851
rhand -20.9362 45.6174
rfingers 7.12502
rthumb 5.43595 15.7071
lclavicle -1.66979e-014 -3.18055e-015
lhumerus 1.12681 -11.0178 76.1311
lradius 74.4475
lwrist 24.9154
lhand -23.7089 -34.0456
lfingers 7.12502
lthumb 2.75845 -4.08365
rfemur -58.8631 -16.4605 8.1541
rtibia 68.078
rfoot -28.817 -0.64527
rtoes -16.0325
lfemur -52.6978 16.3604 -18.8808
ltibia 53.6006
lfoot -17.0275 -6.33959
ltoes -14.0846
664
root 7.77027 14.739 -1.38293 74.3106 81.2408 -305.649
lowerback 25.949 1.4813 -4.23566
upperback 3.77745 0.888234 -1.49406
thorax -10.2569 0.670583 0.438292
lowerneck -18.8385 0.623155 1.78903
upperneck 6.9491 0.751721 -2.62072
head 5.13491 0.241748 -1.0416
rclavicle 1.74931e-014 1.07344e-014
rhumerus -180.504 -178.606 99.6884
rradius 77.507
rwrist -2.359
rhand -21.1358 45.7118
rfingers 7.12502
rthumb 5.2432 15.7967
lclavicle 1.74931e-014 1.07344e-014
lhumerus 1.54069 -11.3402 76.2852
lradius 74.3974
lwrist 24.8717
lhand -23.7963 -34.1709
lfingers 7.12502
lthumb 2.67406 -4.20794
rfemur -58.7967 -16.4983 8.19227
rtibia 67.9187
rfoot -28.5681 -0.599044
rtoes -16.2168
lfemur -52.7257 16.2604 -18.8052
ltibia 53.8121
lfoot -17.1843 -6.09618
ltoes -14.9332
665
root 7.76666 14.7377 -1.4324 73.3118 81.2995 -306.632
lowerback 26.0877 1.56052 -4.32011
upperback 3.82446 0.964401 -1.50038
thorax -10.2796 0.710421 0.45131
lowerneck -18.7202 0.405638 1.7304
upperneck 6.69355 0.434844 -2.28589
head 5.02688 0.111807 -0.955946
rclavicle 7.95139e-016 -3.02153e-014
rhumerus -180.245 -178.168 99.4174
rradius 77.2229
rwrist -2.09168
rhand -21.3014 45.8378
rfingers 7.12502
rthumb 5.0833 15.9188
lclavicle 7.95139e-016 -3.02153e-014
lhumerus 1.72606 -11.5347 76.4548
lradius 74.5393
lwrist 24.8657
lhand -23.5878 -34.0997
lfingers 7.12502
lthumb 2.87545 -4.13934
rfemur -58.7854 -16.5144 8.1324
rtibia 67.7972
rfoot -28.3209 -0.523696
rtoes -16.4226
lfemur -52.8008 16.1014 -18.7828
ltibia 54.0399
lfoot -17.324 -5.80727
ltoes -15.7606
666
root 7.76285 14.7346 -1.48005 72.948 81.2991 -307.097
lowerback 26.12 1.61585 -4.4993
upperback 3.82844 0.98618 -1.49191
thorax -10.2952 0.727806 0.555316
lowerneck -18.7587 0.22274 1.35773
upperneck 6.60324 0.21098 -1.69252
head 4.99791 0.0355899 -0.729871
rclavicle -7.95139e-016 -2.82274e-014
rhumerus -180.154 -177.772 99.2228
rradius 77.1242
rwrist -1.92795
rhand -21.1501 45.7785
rfingers 7.12502
rthumb 5.22941 15.863
lclavicle -7.95139e-016 -2.82274e-014
lhumerus 1.91104 -11.6689 76.6716
lradius 74.5477
lwrist 24.7046
lhand -23.5516 -34.1041
lfingers 7.12502
lthumb 2.91044 -4.14423
rfemur -58.8973 -16.6115 7.9987
rtibia 67.7119
rfoot -28.1221 -0.234088
rtoes -16.3355
lfemur -53.045 15.8844 -18.8857
ltibia 54.2896
lfoot -17.4255 -5.61083
ltoes -15.3757
667
root 7.7564 14.7357 -1.53024 72.3821 81.2645 -307.78
lowerback 26.2721 1.67608 -4.61645
upperback 3.77841 1.01492 -1.52692
thorax -10.4337 0.74674 0.568741
lowerneck -18.9934 0.0722407 1.11416
upperneck 6.72787 0.0165075 -1.25238
head 5.0703 -0.0349945 -0.570928
rclavicle -6.36111e-015 0
rhumerus -180.367 -177.432 99.0668
rradius 77.2997
rwrist -1.95412
rhand -21.1481 45.6682
rfingers 7.12502
rthumb 5.23136 15.7528
lclavicle -6.36111e-015 0
lhumerus 2.15174 -11.9635 76.8067
lradius 74.3753
lwrist 24.3968
lhand -23.8277 -34.2028
lfingers 7.12502
lthumb 2.64373 -4.2394
rfemur -59.03 -16.7398 7.86677
rtibia 67.6145
rfoot -27.9285 0.252607
rtoes -15.8222
lfemur -53.3191 15.7116 -19.0226
ltibia 54.5398
lfoot -17.478 -5.50146
ltoes -14.446
668
root 7.75369 14.7343 -1.58144 71.328 81.2076 -308.896
lowerback 26.4294 1.76003 -4.7069
upperback 3.75566 1.08059 -1.588
thorax -10.5447 0.781263 0.524778
lowerneck -18.9367 -0.0318858 1.13394
upperneck 6.64901 -0.132327 -1.20685
head 5.03467 -0.103642 -0.573694
rclavicle 2.46493e-014 2.98177e-014
rhumerus -180.408 -177.101 98.7734
rradius 77.2355
rwrist -2.02606
rhand -21.3595 45.728
rfingers 7.12502
rthumb 5.0272 15.8076
lclavicle 2.46493e-014 2.98177e-014
lhumerus 2.3606 -12.335 76.8568
lradius 74.331
lwrist 24.1443
lhand -23.9782 -34.3723
lfingers 7.12502
lthumb 2.49843 -4.40722
rfemur -59.1186 -16.8104 7.74479
rtibia 67.4945
rfoot -27.6701 0.562349
rtoes -15.6284
lfemur -53.5146 15.712 -19.1767
ltibia 54.7909
lfoot -17.575 -5.44691
ltoes -14.0948
669
root 7.75324 14.7378 -1.63167 70.3545 81.2101 -309.977
lowerback 26.4485 1.81893 -4.77487
upperback 3.7749 1.13543 -1.61115
thorax -10.5357 0.808837 0.518429
lowerneck -18.9058 -0.137556 0.991281
upperneck 6.54953 -0.25766 -1.03698
head 4.9972 -0.156003 -0.508841
rclavicle -9.54166e-015 -3.53837e-014
rhumerus -180.143 -176.788 98.4454
rradius 76.9195
rwrist -2.06871
rhand -21.4266 45.704
rfingers 7.12502
rthumb 4.96243 15.7821
lclavicle -9.54166e-015 -3.53837e-014
lhumerus 2.58717 -12.5571 76.9734
lradius 74.33
lwrist 23.9832
lhand -23.9816 -34.6541
lfingers 7.12502
lthumb 2.49514 -4.68899
rfemur -59.2662 -16.8622 7.70754
rtibia 67.3615
rfoot -27.3889 0.46314
rtoes -16.0486
lfemur -53.7314 15.6964 -19.2987
ltibia 55.01
lfoot -17.664 -5.37005
ltoes -13.8851
